<svg height="256" width="256" xmlns="http://www.w3.org/2000/svg"><path d="M184.746 156.373a6.377 6.377 0 01-4.525-1.875L128 102.278l-52.223 52.22a6.398 6.398 0 01-9.05 0 6.398 6.398 0 010-9.05l56.749-56.747a6.4 6.4 0 019.05 0l56.745 56.747a6.398 6.398 0 010 9.05 6.38 6.38 0 01-4.525 1.875zM256 128C256 57.42 198.58 0 128 0S0 57.42 0 128s57.42 128 128 128 128-57.42 128-128zm-12.8 0c0 63.521-51.679 115.2-115.2 115.2-63.522 0-115.2-51.679-115.2-115.2C12.8 64.478 64.478 12.8 128 12.8c63.521 0 115.2 51.678 115.2 115.2z"/></svg>