<svg width="48" height="44" fill="none" xmlns="http://www.w3.org/2000/svg"><path d="M46.04 42.75c0 .69-.55 1.25-1.23 1.25H1.23C.55 44 0 43.44 0 42.75s.55-1.25 1.23-1.25h43.58c.68 0 1.23.56 1.23 1.25zM21.77 22.21c.24.23.54.34.84.34.33 0 .66-.13.9-.4.47-.5.44-1.29-.06-1.77-2.11-2-1.66-6.07.16-8.37 2.47-3.12 3.01-8.68-.16-11.67-.5-.47-1.28-.45-1.74.06-.47.5-.44 1.3.06 1.77 1.9 1.79 1.86 5.82-.09 8.28-1.28 1.62-2.04 3.78-2.09 5.95-.06 2.36.71 4.42 2.18 5.81zM48 19.61v2.4c0 3.44-2.76 6.24-6.15 6.24h-2.76c-1.87 5.27-6.85 9.05-12.68 9.05h-6.77c-7.43 0-13.48-6.12-13.48-13.66V11.23c0-.69.56-1.25 1.24-1.25h7.91c1.61-2.48 1.54-6.13-.25-7.81-.5-.48-.52-1.27-.06-1.77.47-.51 1.25-.53 1.75-.06 3.16 2.99 2.62 8.55.15 11.67-1.82 2.3-2.27 6.37-.15 8.37.49.48.52 1.27.06 1.77-.47.51-1.25.53-1.75.06-1.46-1.39-2.24-3.45-2.18-5.81.03-1.35.34-2.7.88-3.92H8.63v11.16c0 6.16 4.94 11.16 11.01 11.16h6.77c6.06 0 11-5 11-11.16V12.48h-9.28c-.68 0-1.23-.56-1.23-1.25s.55-1.25 1.23-1.25h10.52c.68 0 1.23.56 1.23 1.25v2.15h1.97c3.39 0 6.15 2.79 6.15 6.23zm-2.47 0c0-2.06-1.65-3.73-3.68-3.73h-1.97v9.87h1.97c2.03 0 3.68-1.68 3.68-3.74v-2.4z" fill="#C7B299"/></svg>