<svg width="44" height="44" fill="none" xmlns="http://www.w3.org/2000/svg"><path d="M30.25 0c-.42 0-.85.03-1.27.06l-.46.06c-.25.03-.51.07-.76.12-.19.03-.38.07-.56.11-.21.05-.42.11-.63.16-.2.06-.39.11-.59.18-.17.05-.35.12-.52.19-.46.17-.91.36-1.34.58-.09.04-.18.08-.26.13-.23.12-.45.25-.68.39-.12.07-.24.14-.36.22-.22.14-.42.28-.63.43-.06.05-.13.09-.19.13A13.716 13.716 0 0013.75 0C6.17 0 0 6.17 0 13.75c0 12.44 8 23.7 21.41 30.11.18.09.39.14.59.14.2 0 .41-.05.59-.14C36 37.45 44 26.19 44 13.75 44 6.17 37.83 0 30.25 0zM22 41.1C9.93 35.11 2.75 24.93 2.75 13.75c0-6.07 4.93-11 11-11 2.22 0 4.37.68 6.19 1.93-2.13 2.43-3.44 5.6-3.44 9.07 0 .76.61 1.37 1.38 1.37.76 0 1.37-.61 1.37-1.37 0-3.27 1.45-6.21 3.72-8.23.21-.19.43-.36.66-.53l.15-.12c.22-.16.44-.31.67-.45.06-.04.13-.08.19-.12.22-.13.45-.25.68-.37l.24-.12c.22-.1.45-.2.67-.29.1-.04.2-.07.31-.11.21-.08.43-.15.64-.21.14-.04.26-.08.4-.11.2-.05.39-.1.59-.14.18-.03.37-.05.55-.08.15-.02.31-.05.47-.07.35-.03.7-.05 1.06-.05 6.07 0 11 4.93 11 11 0 11.18-7.18 21.36-19.25 27.35zm8.25-35.6c-.76 0-1.38.62-1.38 1.37 0 .76.62 1.38 1.38 1.38 3.03 0 5.5 2.47 5.5 5.5 0 .76.61 1.37 1.37 1.37.76 0 1.38-.61 1.38-1.37 0-4.55-3.7-8.25-8.25-8.25z" fill="#C7B299"/></svg>