<svg width="63" height="55" fill="none" xmlns="http://www.w3.org/2000/svg"><path d="M36.75 10.693h-10.5l5.245 9.166 5.256-9.166zm-11.81.768l-5.256 9.167h10.502L24.94 11.46zm18.376 9.167L38.06 11.46l-5.246 9.167h10.502zm-10.502 1.526l5.246 9.166 5.256-9.166H32.814zm-13.13 0l5.256 9.166 5.246-9.166H19.684zm-6.564 9.924h10.5l-5.246-9.156-5.255 9.156zm36.75 0l-5.245-9.156-5.246 9.156H49.87zM31.495 0l-5.246 9.167h10.502L31.495 0zm13.13 42.771l5.245-9.157H39.38l5.246 9.157zm-26.25 0l5.246-9.157H13.12l5.255 9.157zm-11.81.768h10.491l-5.245-9.166-5.246 9.166zm49.87 0l-5.246-9.166-5.255 9.166h10.501zm-10.502 1.526l5.256 9.167 5.246-9.167H45.933zm-13.119 0l5.246 9.167 5.256-9.167H32.814zm-21.003 9.167l5.245-9.167H6.566l5.246 9.167zM0 55h10.502l-5.256-9.167L0 55zm26.25 0h10.5l-5.255-9.167L26.249 55zm13.129 0H49.87l-5.245-9.167L39.379 55zm18.375-9.167L52.498 55H63l-5.246-9.167z"/></svg>