<svg width="52" height="36" fill="none" xmlns="http://www.w3.org/2000/svg"><path d="M9 13.25c1-2.06 3.47-3.61 5.74-3.61h26.21V7.98c0-1.36-1.11-2.48-2.46-2.48H27.67V4.06C27.67 2 26.02.33 23.99.33H17.7c-.98 0-1.91.39-2.61 1.1-.7.7-1.08 1.63-1.08 2.63V5.5H3.2C1.84 5.5.74 6.62.74 7.98v22.17L9 13.25zm7.47-9.19c0-.33.13-.64.36-.88.23-.24.54-.36.87-.36h6.29c.68 0 1.23.55 1.23 1.24V5.5h-8.75V4.06zm25.45 29.7c-.59 1.22-2.19 2.22-3.54 2.22H3.08c-1.35 0-1.97-1-1.37-2.22l9.49-19.42c.6-1.22 2.19-2.22 3.54-2.22h35.3c1.35 0 1.97 1 1.37 2.22l-9.49 19.42z"/></svg>