<svg width="48" height="48" fill="none" xmlns="http://www.w3.org/2000/svg"><path d="M46.697 17.113a1.56 1.56 0 00-2.204 0L30.926 30.671l-19.063 8.405-2.939-2.939 8.395-19.073L30.887 3.507a1.56 1.56 0 000-2.204 1.56 1.56 0 00-2.205 0L14.704 15.272.519 47.47l32.2-14.175 13.978-13.978a1.56 1.56 0 000-2.205zM26.94 27.89c.303.294.695.45 1.097.45.401 0 .793-.156 1.107-.45L42.2 14.821a1.56 1.56 0 000-2.204 1.561 1.561 0 00-2.204 0L26.939 25.685a1.56 1.56 0 000 2.204zm-3.41-3.409c.305.294.696.45 1.098.45.402 0 .793-.156 1.097-.45l13.068-13.068a1.56 1.56 0 000-2.204 1.56 1.56 0 00-2.204 0L23.53 22.266a1.555 1.555 0 000 2.214zm-3.418-3.419c.304.304.705.46 1.107.46s.793-.156 1.097-.46L35.383 8.003a1.561 1.561 0 000-2.204 1.56 1.56 0 00-2.204 0L20.11 18.857a1.561 1.561 0 000 2.204z"/></svg>