<svg xmlns="http://www.w3.org/2000/svg" xmlns:xlink="http://www.w3.org/1999/xlink"><defs>
<clipPath id="clip0">
<rect width="70" height="70"/>
</clipPath>
</defs><symbol id="customization" viewBox="0 0 44 44">
<path d="M43.93 21.85C43.93 20.23 42.76 18.5 41.32 17.99C39.88 17.48 38.49 16.24 38.08 15.25C37.68 14.27 37.78 12.4 38.44 11.02C39.09 9.64001 38.69 7.59001 37.55 6.44001C36.4 5.30001 34.36 4.90001 32.98 5.56001C31.6 6.21001 29.73 6.32001 28.75 5.91001C27.76 5.51001 26.52 4.11001 26.01 2.67001C25.49 1.23001 23.76 0.0700073 22.14 0.0700073C20.52 0.0700073 18.79 1.23001 18.28 2.67001C17.77 4.11001 16.52 5.51001 15.54 5.91001C14.56 6.32001 12.69 6.21001 11.31 5.56001C9.92999 4.90001 7.87998 5.30001 6.73998 6.44001C5.58998 7.59001 5.18999 9.64001 5.84999 11.02C6.50998 12.4 6.60998 14.27 6.19999 15.25C5.79998 16.23 4.40999 17.48 2.96999 17.99C1.52999 18.5 0.359985 20.23 0.359985 21.85C0.359985 23.47 1.52999 25.2 2.96999 25.71C4.40999 26.22 5.79999 27.47 6.20999 28.45C6.60999 29.43 6.50998 31.3 5.84999 32.68C5.18999 34.06 5.58998 36.11 6.73998 37.26C7.87998 38.4 9.92999 38.8 11.31 38.14C12.69 37.49 14.56 37.38 15.54 37.79C16.52 38.2 17.77 39.59 18.28 41.03C18.79 42.47 20.52 43.63 22.14 43.63C23.76 43.63 25.49 42.47 26.01 41.03C26.52 39.59 27.76 38.2 28.74 37.79C29.73 37.38 31.6 37.49 32.98 38.14C34.36 38.8 36.4 38.4 37.55 37.26C38.69 36.11 39.09 34.06 38.44 32.68C37.78 31.3 37.67 29.43 38.08 28.45C38.48 27.47 39.88 26.22 41.32 25.71C42.76 25.2 43.93 23.47 43.93 21.85ZM22.14 29.84C17.72 29.84 14.15 26.27 14.15 21.86C14.15 17.44 17.72 13.87 22.14 13.87C26.55 13.87 30.13 17.44 30.13 21.86C30.13 26.27 26.55 29.84 22.14 29.84Z"/>
</symbol><symbol id="development" viewBox="0 0 44 40">
<path d="M21.85 0.109985L0.410004 11.67L21.85 23.23L43.29 11.67L21.85 0.109985ZM21.85 26.96L4.4 17.55L0.410004 19.7L21.85 31.25L43.29 19.7L39.3 17.55L21.85 26.96ZM21.85 34.98L4.4 25.57L0.410004 27.72L21.85 39.28L43.29 27.72L39.3 25.57L21.85 34.98Z"/>
</symbol><symbol id="icon search" viewBox="0 0 24 24">
<path d="M23.76 22.68L17.57 16.59C19.19 14.82 20.19 12.49 20.19 9.93C20.19 4.44 15.67 0 10.09 0C4.52 0 0 4.44 0 9.93C0 15.42 4.52 19.86 10.09 19.86C12.5 19.86 14.71 19.03 16.45 17.64L22.66 23.76C22.97 24.06 23.46 24.06 23.76 23.76C24.06 23.46 24.06 22.98 23.76 22.68ZM10.09 18.33C5.38 18.33 1.55 14.57 1.55 9.93C1.55 5.29 5.38 1.52 10.09 1.52C14.81 1.52 18.63 5.29 18.63 9.93C18.63 14.57 14.81 18.33 10.09 18.33Z" fill="white"/>
</symbol><symbol id="icon-cart" viewBox="0 0 18 24">
<path d="M15 3H13.5C13.5 1.34 11.48 0 9 0C6.51 0 4.5 1.34 4.5 3H3C1.35 3 0 4.34 0 6V21C0 22.65 1.35 23.99 3 23.99H15C16.65 23.99 17.99 22.65 17.99 21V6C17.99 4.34 16.65 3 15 3ZM9 1.5C10.66 1.5 12 1.96 12 3H6C6 1.96 7.34 1.5 9 1.5ZM16.49 21C16.49 21.82 15.82 22.49 15 22.49H3C2.17 22.49 1.5 21.82 1.5 21V19.5H16.49V21ZM16.49 18H1.5V6C1.5 5.17 2.17 4.5 3 4.5H4.5V9H6V4.5H12V9H13.5V4.5H15C15.82 4.5 16.49 5.17 16.49 6V18Z"/>
</symbol><symbol id="icon-circle-menu" viewBox="0 0 50 50"><g id="Layer_1_1_"><path d="M25,1C11.767,1,1,11.767,1,25s10.767,24,24,24s24-10.767,24-24S38.233,1,25,1z M25,47C12.869,47,3,37.131,3,25   S12.869,3,25,3s22,9.869,22,22S37.131,47,25,47z"/><rect height="2" width="24" x="13" y="14"/><rect height="2" width="24" x="13" y="24"/><rect height="2" width="24" x="13" y="34"/></g></symbol><symbol id="icon-search" viewBox="0 0 24 24">
<path d="M23.76 22.68L17.57 16.59C19.19 14.82 20.19 12.49 20.19 9.93C20.19 4.44 15.67 0 10.09 0C4.52 0 0 4.44 0 9.93C0 15.42 4.52 19.86 10.09 19.86C12.5 19.86 14.71 19.03 16.45 17.64L22.66 23.76C22.97 24.06 23.46 24.06 23.76 23.76C24.06 23.46 24.06 22.98 23.76 22.68ZM10.09 18.33C5.38 18.33 1.55 14.57 1.55 9.93C1.55 5.29 5.38 1.52 10.09 1.52C14.81 1.52 18.63 5.29 18.63 9.93C18.63 14.57 14.81 18.33 10.09 18.33Z"/>
</symbol><symbol id="icon_play" viewBox="0 0 70 70">
<g clip-path="url(#clip0)">
<path d="M29.93 51.8201C29.64 51.8201 29.34 51.7601 29.06 51.6301C28.34 51.2901 27.87 50.5601 27.87 49.7601V20.2401C27.87 19.4401 28.34 18.7101 29.06 18.3701C29.78 18.0301 30.64 18.1401 31.25 18.6501L48.97 33.4201C49.44 33.8101 49.71 34.3901 49.71 35.0001C49.71 35.6101 49.44 36.1901 48.97 36.5801L31.25 51.3401C30.88 51.6601 30.41 51.8201 29.93 51.8201ZM31.99 24.6301V45.3601L44.43 35.0001L31.99 24.6301ZM34.94 70.0001C29.07 70.0001 23.17 68.5401 17.83 65.5301C16.84 64.9701 16.49 63.7101 17.05 62.7201C17.6 61.7301 18.86 61.3801 19.85 61.9401C31.87 68.7001 47.08 66.6101 56.85 56.8501C68.89 44.8001 68.89 25.2001 56.85 13.1501C44.8 1.10012 25.2 1.10012 13.15 13.1501C1.09999 25.2001 1.09999 44.8001 13.15 56.8501C13.95 57.6501 13.95 58.9501 13.15 59.7601C12.35 60.5601 11.04 60.5601 10.24 59.7601C-3.42 46.1001 -3.42 23.8901 10.24 10.2401C23.89 -3.41988 46.1 -3.41988 59.76 10.2401C73.41 23.8901 73.41 46.1001 59.76 59.7601C53.03 66.4801 44.03 70.0001 34.94 70.0001Z"/>
</g>

</symbol><symbol id="logo" viewBox="0 0 63 55">
<path d="M36.7508 10.6928H26.2492L31.495 19.8594L36.7508 10.6928ZM24.9402 11.4608L19.6844 20.6275H30.186L24.9402 11.4608ZM43.3156 20.6275L38.0598 11.4608L32.814 20.6275H43.3156ZM32.814 22.1536L38.0598 31.3203L43.3156 22.1536H32.814ZM19.6844 22.1536L24.9402 31.3203L30.186 22.1536H19.6844ZM13.1196 32.0783H23.6213L18.3754 22.9217L13.1196 32.0783ZM49.8704 32.0783L44.6246 22.9217L39.3787 32.0783H49.8704ZM31.495 0L26.2492 9.16667H36.7508L31.495 0ZM44.6246 42.7711L49.8704 33.6144H39.3787L44.6246 42.7711ZM18.3754 42.7711L23.6213 33.6144H13.1196L18.3754 42.7711ZM6.56479 43.5392H17.0565L11.8106 34.3725L6.56479 43.5392ZM56.4352 43.5392L51.1894 34.3725L45.9335 43.5392H56.4352ZM45.9335 45.0653L51.1894 54.232L56.4352 45.0653H45.9335ZM32.814 45.0653L38.0598 54.232L43.3156 45.0653H32.814ZM11.8106 54.232L17.0565 45.0653H6.56479L11.8106 54.232ZM0 55H10.5017L5.24584 45.8333L0 55ZM26.2492 55H36.7508L31.495 45.8333L26.2492 55ZM39.3787 55H49.8704L44.6246 45.8333L39.3787 55ZM57.7542 45.8333L52.4983 55H63L57.7542 45.8333Z"/>
</symbol><symbol id="marketing" viewBox="0 0 52 36">
<path d="M8.99999 13.25C9.99999 11.19 12.47 9.64002 14.74 9.64002H40.95V7.98002C40.95 6.62002 39.84 5.50002 38.49 5.50002H27.67V4.06002C27.67 2.00002 26.02 0.330017 23.99 0.330017H17.7C16.72 0.330017 15.79 0.720017 15.09 1.43002C14.39 2.13002 14.01 3.06002 14.01 4.06002V5.50002H3.19999C1.83999 5.50002 0.73999 6.62002 0.73999 7.98002V30.15L8.99999 13.25ZM16.47 4.06002C16.47 3.73002 16.6 3.42002 16.83 3.18002C17.06 2.94002 17.37 2.82002 17.7 2.82002H23.99C24.67 2.82002 25.22 3.37002 25.22 4.06002V5.50002H16.47V4.06002ZM41.92 33.76C41.33 34.98 39.73 35.98 38.38 35.98H3.07999C1.72999 35.98 1.10999 34.98 1.70999 33.76L11.2 14.34C11.8 13.12 13.39 12.12 14.74 12.12H50.04C51.39 12.12 52.01 13.12 51.41 14.34L41.92 33.76Z"/>
</symbol><symbol id="pencil" viewBox="0 0 48 48">
<path d="M46.6971 17.1135C46.08 16.5061 45.1004 16.5061 44.4931 17.1135L30.9257 30.671L11.8629 39.0759L8.92408 36.1371L17.3192 17.0645L30.8865 3.50694C31.4939 2.8898 31.4939 1.91021 30.8865 1.30286C30.2694 0.695514 29.2898 0.695514 28.6824 1.30286L14.7037 15.2718L0.51918 47.471L32.7184 33.2963L46.6971 19.3176C47.3045 18.7102 47.3045 17.7208 46.6971 17.1135ZM26.9388 27.889C27.2424 28.1829 27.6343 28.3396 28.0359 28.3396C28.4375 28.3396 28.8294 28.1829 29.1428 27.889L42.2008 14.8212C42.8082 14.2139 42.8082 13.2343 42.2008 12.6171C41.5837 12.0098 40.6041 12.0098 39.9967 12.6171L26.9388 25.6849C26.3314 26.2922 26.3314 27.2718 26.9388 27.889ZM23.5298 24.48C23.8335 24.7739 24.2253 24.9306 24.6269 24.9306C25.0286 24.9306 25.4204 24.7739 25.7241 24.48L38.7918 11.4122C39.3992 10.8049 39.3992 9.81551 38.7918 9.20817C38.1747 8.60082 37.1951 8.60082 36.5877 9.20817L23.5298 22.2661C22.9126 22.8735 22.9126 23.8629 23.5298 24.48ZM20.111 21.0612C20.4147 21.3649 20.8163 21.5216 21.218 21.5216C21.6196 21.5216 22.0114 21.3649 22.3151 21.0612L35.3829 8.00327C35.9902 7.39592 35.9902 6.40653 35.3829 5.79919C34.7755 5.19184 33.7861 5.19184 33.1788 5.79919L20.111 18.8571C19.5037 19.4645 19.5037 20.4539 20.111 21.0612Z"/>
</symbol><symbol id="slider_header_left" viewBox="0 0 40 73">
<path opacity="0.502" d="M38.03 72.98L0 36.5L38.03 0.0200195L40 2.02002L4.07 36.5L40 70.98L38.03 72.98Z"/>
</symbol><symbol id="slider_header_right" viewBox="0 0 40 73">
<path d="M1.97 72.96L40 36.48L1.97 0L0 2L35.93 36.48L0 70.96L1.97 72.96Z"/>
</symbol></svg>