<svg width="44" height="44" viewBox="0 0 44 44" fill="none" xmlns="http://www.w3.org/2000/svg">
<path d="M43.93 21.85C43.93 20.23 42.76 18.5 41.32 17.99C39.88 17.48 38.49 16.24 38.08 15.25C37.68 14.27 37.78 12.4 38.44 11.02C39.09 9.64001 38.69 7.59001 37.55 6.44001C36.4 5.30001 34.36 4.90001 32.98 5.56001C31.6 6.21001 29.73 6.32001 28.75 5.91001C27.76 5.51001 26.52 4.11001 26.01 2.67001C25.49 1.23001 23.76 0.0700073 22.14 0.0700073C20.52 0.0700073 18.79 1.23001 18.28 2.67001C17.77 4.11001 16.52 5.51001 15.54 5.91001C14.56 6.32001 12.69 6.21001 11.31 5.56001C9.92999 4.90001 7.87998 5.30001 6.73998 6.44001C5.58998 7.59001 5.18999 9.64001 5.84999 11.02C6.50998 12.4 6.60998 14.27 6.19999 15.25C5.79998 16.23 4.40999 17.48 2.96999 17.99C1.52999 18.5 0.359985 20.23 0.359985 21.85C0.359985 23.47 1.52999 25.2 2.96999 25.71C4.40999 26.22 5.79999 27.47 6.20999 28.45C6.60999 29.43 6.50998 31.3 5.84999 32.68C5.18999 34.06 5.58998 36.11 6.73998 37.26C7.87998 38.4 9.92999 38.8 11.31 38.14C12.69 37.49 14.56 37.38 15.54 37.79C16.52 38.2 17.77 39.59 18.28 41.03C18.79 42.47 20.52 43.63 22.14 43.63C23.76 43.63 25.49 42.47 26.01 41.03C26.52 39.59 27.76 38.2 28.74 37.79C29.73 37.38 31.6 37.49 32.98 38.14C34.36 38.8 36.4 38.4 37.55 37.26C38.69 36.11 39.09 34.06 38.44 32.68C37.78 31.3 37.67 29.43 38.08 28.45C38.48 27.47 39.88 26.22 41.32 25.71C42.76 25.2 43.93 23.47 43.93 21.85ZM22.14 29.84C17.72 29.84 14.15 26.27 14.15 21.86C14.15 17.44 17.72 13.87 22.14 13.87C26.55 13.87 30.13 17.44 30.13 21.86C30.13 26.27 26.55 29.84 22.14 29.84Z" />
</svg>
