<svg width="70" height="70" viewBox="0 0 70 70" fill="none" xmlns="http://www.w3.org/2000/svg">
<g clip-path="url(#clip0)">
<path d="M29.93 51.8201C29.64 51.8201 29.34 51.7601 29.06 51.6301C28.34 51.2901 27.87 50.5601 27.87 49.7601V20.2401C27.87 19.4401 28.34 18.7101 29.06 18.3701C29.78 18.0301 30.64 18.1401 31.25 18.6501L48.97 33.4201C49.44 33.8101 49.71 34.3901 49.71 35.0001C49.71 35.6101 49.44 36.1901 48.97 36.5801L31.25 51.3401C30.88 51.6601 30.41 51.8201 29.93 51.8201ZM31.99 24.6301V45.3601L44.43 35.0001L31.99 24.6301ZM34.94 70.0001C29.07 70.0001 23.17 68.5401 17.83 65.5301C16.84 64.9701 16.49 63.7101 17.05 62.7201C17.6 61.7301 18.86 61.3801 19.85 61.9401C31.87 68.7001 47.08 66.6101 56.85 56.8501C68.89 44.8001 68.89 25.2001 56.85 13.1501C44.8 1.10012 25.2 1.10012 13.15 13.1501C1.09999 25.2001 1.09999 44.8001 13.15 56.8501C13.95 57.6501 13.95 58.9501 13.15 59.7601C12.35 60.5601 11.04 60.5601 10.24 59.7601C-3.42 46.1001 -3.42 23.8901 10.24 10.2401C23.89 -3.41988 46.1 -3.41988 59.76 10.2401C73.41 23.8901 73.41 46.1001 59.76 59.7601C53.03 66.4801 44.03 70.0001 34.94 70.0001Z" />
</g>
<defs>
<clipPath id="clip0">
<rect width="70" height="70" />
</clipPath>
</defs>
</svg>
