<svg width="52" height="36" viewBox="0 0 52 36" fill="none" xmlns="http://www.w3.org/2000/svg">
<path d="M8.99999 13.25C9.99999 11.19 12.47 9.64002 14.74 9.64002H40.95V7.98002C40.95 6.62002 39.84 5.50002 38.49 5.50002H27.67V4.06002C27.67 2.00002 26.02 0.330017 23.99 0.330017H17.7C16.72 0.330017 15.79 0.720017 15.09 1.43002C14.39 2.13002 14.01 3.06002 14.01 4.06002V5.50002H3.19999C1.83999 5.50002 0.73999 6.62002 0.73999 7.98002V30.15L8.99999 13.25ZM16.47 4.06002C16.47 3.73002 16.6 3.42002 16.83 3.18002C17.06 2.94002 17.37 2.82002 17.7 2.82002H23.99C24.67 2.82002 25.22 3.37002 25.22 4.06002V5.50002H16.47V4.06002ZM41.92 33.76C41.33 34.98 39.73 35.98 38.38 35.98H3.07999C1.72999 35.98 1.10999 34.98 1.70999 33.76L11.2 14.34C11.8 13.12 13.39 12.12 14.74 12.12H50.04C51.39 12.12 52.01 13.12 51.41 14.34L41.92 33.76Z" />
</svg>
