<svg width="48" height="48" viewBox="0 0 48 48" fill="none" xmlns="http://www.w3.org/2000/svg">
<path d="M46.6971 17.1135C46.08 16.5061 45.1004 16.5061 44.4931 17.1135L30.9257 30.671L11.8629 39.0759L8.92408 36.1371L17.3192 17.0645L30.8865 3.50694C31.4939 2.8898 31.4939 1.91021 30.8865 1.30286C30.2694 0.695514 29.2898 0.695514 28.6824 1.30286L14.7037 15.2718L0.51918 47.471L32.7184 33.2963L46.6971 19.3176C47.3045 18.7102 47.3045 17.7208 46.6971 17.1135ZM26.9388 27.889C27.2424 28.1829 27.6343 28.3396 28.0359 28.3396C28.4375 28.3396 28.8294 28.1829 29.1428 27.889L42.2008 14.8212C42.8082 14.2139 42.8082 13.2343 42.2008 12.6171C41.5837 12.0098 40.6041 12.0098 39.9967 12.6171L26.9388 25.6849C26.3314 26.2922 26.3314 27.2718 26.9388 27.889ZM23.5298 24.48C23.8335 24.7739 24.2253 24.9306 24.6269 24.9306C25.0286 24.9306 25.4204 24.7739 25.7241 24.48L38.7918 11.4122C39.3992 10.8049 39.3992 9.81551 38.7918 9.20817C38.1747 8.60082 37.1951 8.60082 36.5877 9.20817L23.5298 22.2661C22.9126 22.8735 22.9126 23.8629 23.5298 24.48ZM20.111 21.0612C20.4147 21.3649 20.8163 21.5216 21.218 21.5216C21.6196 21.5216 22.0114 21.3649 22.3151 21.0612L35.3829 8.00327C35.9902 7.39592 35.9902 6.40653 35.3829 5.79919C34.7755 5.19184 33.7861 5.19184 33.1788 5.79919L20.111 18.8571C19.5037 19.4645 19.5037 20.4539 20.111 21.0612Z" />
</svg>
