<svg width="22" height="22" viewBox="0 0 22 22" fill="none" xmlns="http://www.w3.org/2000/svg">
<path d="M14.42 10.4298L9.64003 5.65978C9.36003 5.36978 8.89003 5.36978 8.60003 5.65978C8.32003 5.94978 8.32003 6.41978 8.60003 6.69978L12.86 10.9598L8.60003 15.2098C8.32003 15.4998 8.32003 15.9598 8.60003 16.2498C8.89003 16.5398 9.36003 16.5398 9.64003 16.2498L14.42 11.4798C14.56 11.3298 14.63 11.1498 14.63 10.9598C14.63 10.7698 14.56 10.5798 14.42 10.4298ZM11.01 0.0297852C4.95003 0.0297852 0.0300293 4.93979 0.0300293 11.0098C0.0300293 17.0798 4.95003 21.9898 11.01 21.9898C17.08 21.9898 22 17.0798 22 11.0098C22 4.93979 17.08 0.0297852 11.01 0.0297852ZM11.01 20.5198C5.77003 20.5198 1.50003 16.2498 1.50003 11.0098C1.50003 5.76979 5.77003 1.49979 11.01 1.49979C16.26 1.49979 20.52 5.76979 20.52 11.0098C20.52 16.2498 16.26 20.5198 11.01 20.5198Z"/>
</svg>
