<svg width="22" height="22" viewBox="0 0 22 22" fill="none" xmlns="http://www.w3.org/2000/svg">
<path d="M7.58 10.4298L12.35 5.65978C12.64 5.36978 13.11 5.36978 13.4 5.65978C13.68 5.94978 13.68 6.41978 13.4 6.69978L9.14 10.9598L13.4 15.2098C13.68 15.4998 13.68 15.9598 13.4 16.2498C13.11 16.5398 12.64 16.5398 12.35 16.2498L7.58 11.4798C7.44 11.3298 7.37 11.1498 7.37 10.9598C7.37 10.7698 7.44 10.5798 7.58 10.4298ZM10.99 0.0297852C17.05 0.0297852 21.97 4.93979 21.97 11.0098C21.97 17.0798 17.05 21.9898 10.99 21.9898C4.92 21.9898 0 17.0798 0 11.0098C0 4.93979 4.92 0.0297852 10.99 0.0297852ZM10.99 20.5198C16.23 20.5198 20.5 16.2498 20.5 11.0098C20.5 5.76979 16.23 1.49979 10.99 1.49979C5.74 1.49979 1.47 5.76979 1.47 11.0098C1.47 16.2498 5.74 20.5198 10.99 20.5198Z" />
</svg>
